<svg xmlns="http://www.w3.org/2000/svg" width="89" height="62" viewBox="0 0 89 62"><g><g><g><path fill="#14214e" d="M45.37 8.92l20.752 5.852 20.77 5.856a2.88 2.88 0 0 1 2.102 2.773H89V46.825c0 1.39-.982 2.55-2.29 2.825l-20.588 5.805-20.768 5.856a2.87 2.87 0 0 1-1.572-.005l-20.751-5.851-20.768-5.855a2.885 2.885 0 0 1-2.104-2.775H.154V23.401a2.89 2.89 0 0 1 2.29-2.824l20.587-5.805 20.767-5.856a2.868 2.868 0 0 1 1.573.005z"/></g><g><path fill="#fff" d="M64.567 20.32l-19.99-5.637-19.99 5.637-18.66 5.261v19.064l18.66 5.262 19.99 5.636 19.99-5.636 18.66-5.262V25.58z"/></g><g><path fill="#fff" d="M53.557 4.85V1.04c0-.572.467-1.039 1.039-1.039h2.2c.571 0 1.039.467 1.039 1.039V6.41h3.025c.088 0 .162.009.248.03 2.235.548 5.052 2.074 5.695 4.471.253.942.514 1.886.764 2.829h11.481l.817-.083a.969.969 0 0 1 .104-.005h2.158c.57 0 1.038.467 1.038 1.038v12.218c.25 1.744-.973 3.06-2.764 3.06h-.693a5.677 5.677 0 0 1-9.918 0h-5.33c-.323.557-.954.906-1.706.906H31.977c-1.261.11-1.997-1.035-1.997-2.205v-1.442h-.729a5.677 5.677 0 0 1-11.07 1.752 5.677 5.677 0 0 1-11.07-1.752h-.103a1.041 1.041 0 0 1-1.039-1.039v-2.244c0-.332.14-.62.404-.823 1.88-1.45 4.695-2.62 7.101-2.712.02-.03.04-.057.062-.083.877-1.09 2.463-1.683 3.83-1.683h7.096c1.027 0 2.064.655 2.064 1.783v.212h7.578V4.104a1.04 1.04 0 0 1 1.037-1.038h10.977c2.42-.122 5.229.464 7.439 1.784z"/></g><g><path fill="#14214e" d="M79.969 14.69h2.157v12.298s.325 1.942-1.725 1.942H63.638s.15.904-.884.904h-30.83s-.906.108-.906-1.165v-2.48H7.008v-2.245s3.236-2.503 6.774-2.503h8.382v-.463h-7.82s1.037-1.297 3.021-1.297h7.097s1.025.023 1.025.745v1.251h9.654V4.104h11.005s5.891-.322 8.913 3.345h5.801s4.214 1.022 4.94 3.732l.964 3.597h12.337l.868-.088z"/></g><g><path fill="#14214e" d="M12.787 22.565a4.637 4.637 0 1 1 0 9.276 4.637 4.637 0 1 1 0-9.276z"/></g><g><path fill="#fff" d="M12.787 25.003a2.2 2.2 0 1 1 .002 4.4 2.2 2.2 0 0 1-.002-4.4z"/></g><g><path fill="#14214e" d="M23.574 22.565a4.637 4.637 0 1 1 0 9.276 4.637 4.637 0 1 1 0-9.276z"/></g><g><path fill="#fff" d="M23.575 25.003a2.2 2.2 0 1 1 0 4.4 2.2 2.2 0 0 1 0-4.4z"/></g><g><path fill="#14214e" d="M74.75 22.565a4.638 4.638 0 1 1 0 9.276 4.638 4.638 0 1 1 0-9.276z"/></g><g><path fill="#fff" d="M74.75 25.003a2.2 2.2 0 1 1-.001 4.4 2.2 2.2 0 0 1 0-4.4z"/></g><g><path fill="#14214e" d="M54.595 1.039h2.2v11.218h-2.2z"/></g><g><path fill="#fff" d="M32 28.438v-3.28h5.87v-.71h15.339v.776h-14.8v2.955h-.56v-2.395h-5.178v2.222s-.021.474-.67.432z"/></g><g><path fill="#fff" d="M56.91 21.423V11.26h-1.402l1.024-.388V1.412h-1.218v.68h.55v8.586l-1.348.788h1.575v9.61l.818.347z"/></g><g><path fill="#fff" d="M51.466 8.63S49.999 6.168 48.1 6.168H37.96l-1.489-.583H49.87s1.941.431 2.89 1.294c.95.863.971.95.971.95h.864v.8zM65.1 11.282h-2.632s-.67-2.654-2.46-2.654h-3.212v-.8h3.363s3.711.603 4.941 3.454z"/></g><g><path fill="#fff" d="M80.269 24.282a.207.207 0 1 1-.333.246c-.683-.92-1.419-1.661-2.27-2.156-.842-.49-1.803-.74-2.944-.68-.823.043-1.676.245-2.434.683a4.554 4.554 0 0 0-1.67 1.68c-.425.73-.696 1.337-.916 1.83-.533 1.194-.79 1.769-2.026 1.769h-2.89a.207.207 0 0 1 0-.414h2.89c.97 0 1.19-.495 1.649-1.524.226-.505.505-1.129.934-1.869a4.966 4.966 0 0 1 1.821-1.83h.002c.821-.473 1.737-.692 2.618-.738 1.229-.064 2.263.206 3.174.735.903.525 1.678 1.306 2.395 2.268zm.522-8.883a.345.345 0 1 1 .691 0v8.963a.345.345 0 1 1-.69 0z"/></g><g><path fill="#14214e" d="M3.262 32.699h82.63v-1.443H3.262z"/></g><g><path fill="#c70041" d="M76.549 46.126h-3.895v-3.991c0-.18-.021-.333-.064-.46a.683.683 0 0 0-.19-.3.955.955 0 0 0-.325-.15 1.697 1.697 0 0 0-.45-.056h-1.3v4.957h-3.88V34.073h3.88v3.96l2.709-3.96h4.339l-4.117 4.752c.57.042 1.066.142 1.488.3.422.159.76.365 1.014.618.263.254.462.525.594.816.132.291.197.599.197.926v4.641zm-18.726-3.802c0 .149.027.275.08.38.052.106.131.19.237.255a1.335 1.335 0 0 0 .713.19h3.389v2.977H58.82c-.643 0-1.248-.07-1.812-.206a6.37 6.37 0 0 1-1.592-.618c-.496-.274-.868-.633-1.117-1.076-.247-.445-.372-.972-.372-1.584v-5.084c0-.613.125-1.14.372-1.584.249-.443.62-.802 1.117-1.077a6.445 6.445 0 0 1 1.6-.618 7.708 7.708 0 0 1 1.804-.206h3.422v2.915h-3.389c-.137 0-.264.018-.38.055a1.521 1.521 0 0 0-.333.151.617.617 0 0 0-.238.245.796.796 0 0 0-.079.373zm-8.13-8.251v8.742c0 .623-.127 1.162-.381 1.617a2.813 2.813 0 0 1-1.124 1.092 6.173 6.173 0 0 1-1.6.61 7.99 7.99 0 0 1-1.805.198 7.994 7.994 0 0 1-1.806-.198 6.147 6.147 0 0 1-1.599-.61c-.497-.275-.869-.636-1.117-1.085-.248-.448-.372-.984-.372-1.607v-8.759h3.88v8.457a.73.73 0 0 0 .07.31c.049.1.109.193.183.277a.81.81 0 0 0 .309.19c.122.042.272.064.452.064s.338-.022.475-.064a.669.669 0 0 0 .316-.19.744.744 0 0 0 .182-.278.872.872 0 0 0 .056-.309v-8.457zM29.54 39.03h.982c.17 0 .333-.02.491-.063.158-.042.307-.1.444-.174a.829.829 0 0 0 .309-.317.948.948 0 0 0 .103-.46c0-.179-.034-.337-.103-.474a.71.71 0 0 0-.31-.317 1.476 1.476 0 0 0-.443-.182 2.109 2.109 0 0 0-.49-.055h-.983zm0 2.455v4.641h-3.88V34.073h5.037c.633 0 1.238.07 1.813.206a6.146 6.146 0 0 1 1.592.618c.496.264.871.608 1.125 1.03.252.422.38.913.38 1.473v.554c0 .38-.059.73-.176 1.054-.115.321-.295.609-.537.862a3.943 3.943 0 0 1-.776.681c-.285.19-.592.35-.918.475l3.261 5.1h-4.228l-2.693-4.64zm-7.956-4.497h-2.978v9.138h-3.863v-9.138H11.78v-2.915h9.804z"/></g><g><path fill="#c70041" d="M60.525 47.16v.948h-.967v2.969h-1.256v-2.97h-.961v-.946zm-5.397 1.612h.32a.692.692 0 0 0 .304-.078.281.281 0 0 0 .1-.103.321.321 0 0 0 .032-.15.348.348 0 0 0-.033-.152.234.234 0 0 0-.1-.103.505.505 0 0 0-.144-.06.74.74 0 0 0-.16-.018h-.319zm0 .797v1.508h-1.26V47.16h1.636c.206 0 .401.023.589.068.187.044.359.11.517.2a.92.92 0 0 1 .366.335.915.915 0 0 1 .123.477v.18a1 1 0 0 1-.057.342.801.801 0 0 1-.174.282c-.076.085-.16.16-.253.22a1.563 1.563 0 0 1-.299.155l1.06 1.657h-1.373l-.875-1.508zm-3.348.612a.511.511 0 0 0 .148-.02.217.217 0 0 0 .098-.063.31.31 0 0 0 .064-.089.222.222 0 0 0 .024-.1v-1.58a.2.2 0 0 0-.024-.097.322.322 0 0 0-.064-.088.206.206 0 0 0-.098-.061.468.468 0 0 0-.148-.022.465.465 0 0 0-.15.022.243.243 0 0 0-.103.061.349.349 0 0 0-.056.088.231.231 0 0 0-.022.097v1.58c0 .034.008.068.022.1a.334.334 0 0 0 .056.09.258.258 0 0 0 .103.062c.04.013.09.02.15.02zm-1.59-.174V48.24c0-.198.04-.37.12-.514a.896.896 0 0 1 .363-.35c.161-.09.333-.156.517-.202.184-.047.38-.07.59-.07.208 0 .405.023.591.07.185.046.358.113.519.202.162.09.283.206.363.35.08.145.12.316.12.514v1.766c0 .202-.04.377-.12.521a.895.895 0 0 1-.363.353c-.16.09-.334.156-.519.198a2.633 2.633 0 0 1-.591.064c-.21 0-.406-.02-.59-.064a1.987 1.987 0 0 1-.517-.198.895.895 0 0 1-.363-.353 1.059 1.059 0 0 1-.12-.521zm-2.187-1.185h.298a.529.529 0 0 0 .304-.082.236.236 0 0 0 .103-.11.397.397 0 0 0 .031-.167.381.381 0 0 0-.031-.162.23.23 0 0 0-.103-.11.596.596 0 0 0-.304-.083h-.298zm-1.26-1.661h1.574c.213 0 .412.024.6.073.186.048.359.118.517.21.16.092.281.21.361.347.082.14.122.3.122.481v.346c0 .18-.04.343-.122.486-.08.142-.2.262-.361.363-.158.099-.33.173-.518.223a2.36 2.36 0 0 1-.599.074h-.314v1.313h-1.26zm-.376 2.846a.9.9 0 0 1-.123.39c-.072.123-.177.24-.314.35-.133.11-.3.193-.494.247a2.465 2.465 0 0 1-.67.083h-1.593v-.967h1.537a.958.958 0 0 0 .191-.017.329.329 0 0 0 .128-.046.183.183 0 0 0 .076-.077.234.234 0 0 0 .022-.103v-.118a.216.216 0 0 0-.022-.1.262.262 0 0 0-.07-.08.324.324 0 0 0-.106-.055.488.488 0 0 0-.136-.017h-.235a.14.14 0 0 1-.037-.005h-.093a.05.05 0 0 1-.025-.005h-.047a1.95 1.95 0 0 1-.473-.076 1.37 1.37 0 0 1-.402-.187.842.842 0 0 1-.285-.295 1.058 1.058 0 0 1-.126-.41v-.014l-.006-.004v-.265a.05.05 0 0 1 .006-.025.958.958 0 0 1 .442-.761c.14-.097.295-.168.465-.216a2.02 2.02 0 0 1 .559-.073h1.497v.947h-1.44a.483.483 0 0 0-.131.015.17.17 0 0 0-.08.046.196.196 0 0 0-.045.07.292.292 0 0 0 0 .166.16.16 0 0 0 .05.068c.02.02.047.037.082.05a.538.538 0 0 0 .128.022l.356.015c.206 0 .39.025.555.073.164.048.305.12.422.216.12.095.214.197.286.304a.96.96 0 0 1 .14.334v.02c0 .007.003.012.006.016v.05c0 .008.002.013.005.017zm-4.933-2.846h1.26v4.147l-2.11-1.657v1.426h-1.26v-4.1l2.11 1.774zm-4.332 2.557h.555l-.283-1.482zm2.007 1.359h-1.226l-.056-.387h-.89l-.056.387h-1.168l-.038-.06.877-3.856h1.666zm-3.396 0h-1.374l-.874-1.508v1.508h-1.261V47.16h1.636c.206 0 .402.023.59.068.186.044.359.11.517.2a.91.91 0 0 1 .364.335.905.905 0 0 1 .124.477v.18a1 1 0 0 1-.056.343.787.787 0 0 1-.176.28c-.075.086-.16.16-.252.222-.092.061-.191.113-.298.154l1.022 1.597-.014.06zm-2.248-2.305h.319a.693.693 0 0 0 .304-.078.269.269 0 0 0 .099-.103.306.306 0 0 0 .034-.15.332.332 0 0 0-.034-.152.225.225 0 0 0-.1-.103.505.505 0 0 0-.144-.06.748.748 0 0 0-.16-.018h-.318zm-1.652-1.611v.947h-.967v2.969H29.59v-2.97h-.962v-.946z"/></g></g></g></svg>